<svg id="Capa_1" enable-background="new 0 0 512.383 512.383" height="512" viewBox="0 0 512.383 512.383" width="512" xmlns="http://www.w3.org/2000/svg"><g><path d="m203.541 188.04c-3.403-2.363-8.076-1.521-10.438 1.88-12.729 18.321-19.44 39.853-19.407 62.265.09 59.181 48.289 107.997 107.456 108.82.515.007 1.031.011 1.546.011 29.114 0 56.486-11.338 77.073-31.924 20.587-20.588 31.925-47.96 31.925-77.076 0-22.313-6.691-43.756-19.352-62.012-2.36-3.403-7.032-4.25-10.437-1.89s-4.25 7.033-1.89 10.437c1.783 2.571 3.414 5.223 4.92 7.933-8.092 1.949-16.384 2.886-24.681 2.779 6.869-6.695 11.146-16.035 11.146-26.363 0-19.564-15.326-35.61-34.602-36.778 1.714-4.249 2.667-8.883 2.667-13.738 0-20.321-16.532-36.854-36.854-36.854s-36.854 16.532-36.854 36.854c0 6.171 1.532 11.988 4.224 17.104-17.547 2.815-30.996 18.055-30.996 36.383 0 7.207 2.092 13.928 5.684 19.611l-21.585-3.459c.753-1.194 1.525-2.378 2.334-3.543 2.364-3.403 1.522-8.077-1.879-10.44zm145.622 130.444c-17.753 17.754-41.358 27.531-66.468 27.531-.452 0-.908-.004-1.349-.009-34.042-.474-63.872-19.384-79.977-47.079l25.818 4.128c9.648 1.543 19.476 1.854 29.205.924l27.688-2.646c10.236-.979 20.523-.383 30.576 1.77l2.095.448c7.968 1.706 16.065 2.555 24.152 2.555 6.663 0 13.319-.581 19.89-1.731-3.376 5.013-7.26 9.739-11.63 14.109zm-12.761-135.584c0 12.05-9.804 21.854-21.854 21.854s-21.854-9.804-21.854-21.854 9.804-21.854 21.854-21.854 21.854 9.805 21.854 21.854zm-53.789-72.37c12.05 0 21.854 9.804 21.854 21.854s-9.804 21.854-21.854 21.854-21.854-9.804-21.854-21.854 9.804-21.854 21.854-21.854zm-26.771 53.487c12.05 0 21.854 9.804 21.854 21.854 0 9.562-6.176 17.704-14.746 20.661l-7.142.684c-1.09.104-2.182.189-3.275.258-10.485-1.6-18.544-10.678-18.544-21.603-.001-12.051 9.803-21.854 21.853-21.854zm-27.744 57.205c9.628 1.544 19.43 1.854 29.142.925l27.619-2.646c10.205-.979 20.461-.383 30.486 1.769l2.094.449c7.95 1.706 16.028 2.555 24.098 2.555 10.004 0 19.988-1.328 29.696-3.923 2.987 8.352 4.762 17.123 5.285 26.103-9.532 2.416-19.378 3.677-29.356 3.723-4.143.02-7.484 3.393-7.466 7.534.02 4.131 3.373 7.466 7.499 7.466h.035c9.802-.045 19.496-1.146 28.946-3.235-.896 8.592-2.953 16.929-6.093 24.83-16.258 4.936-33.549 5.677-50.192 2.114l-2.095-.448c-11.554-2.474-23.377-3.16-35.143-2.033l-27.688 2.646c-8.468.806-17.017.537-25.411-.805l-35.716-5.71c-2.77-7.98-4.489-16.432-4.987-25.189l33.052 4.811c6.55.954 13.174 1.432 19.804 1.432 3.976 0 7.955-.172 11.919-.517l30.411-2.646c10.593-.922 21.312-.446 31.856 1.412 4.076.721 7.969-2.003 8.688-6.083.72-4.079-2.004-7.97-6.083-8.688-11.833-2.088-23.864-2.621-35.763-1.584l-30.41 2.646c-9.418.817-18.927.544-28.262-.815l-34.855-5.073c.933-9.055 3.164-17.854 6.62-26.188z"/><path d="m417.695 252.016c0-27.633-8.294-54.199-23.985-76.827-12.299-17.737-16.733-40.373-12.165-62.102 1.179-5.607 2.157-11.273 2.906-16.84.707-5.242-.892-10.54-4.384-14.535-3.517-4.022-8.597-6.329-13.938-6.329h-116.318c-1.176-41.765-35.491-75.383-77.534-75.383-42.783 0-77.59 34.807-77.59 77.591 0 42.783 34.807 77.59 77.59 77.59 3.261 0 6.511-.211 9.736-.621-2.426 7.24-5.846 14.167-10.264 20.526-15.778 22.711-24.096 49.385-24.054 77.139.05 33.063 12.315 64.926 34.536 89.718 20.555 22.933 48.035 38.106 77.964 43.184v39.257c0 4.143 3.357 7.5 7.5 7.5s7.5-3.357 7.5-7.5v-45.752c0-3.801-2.844-7.001-6.618-7.448-28.854-3.418-55.552-17.357-75.176-39.252-19.757-22.042-30.661-50.357-30.706-79.729-.037-24.671 7.354-48.377 21.372-68.557 15.34-22.082 20.78-49.854 14.925-76.194-.959-4.312-1.829-8.692-2.586-13.02-.238-1.367.374-2.342.76-2.801.392-.466 1.259-1.247 2.674-1.247h166.29c1.387 0 2.252.753 2.645 1.202.379.433.987 1.354.812 2.66-.701 5.205-1.616 10.505-2.721 15.755-5.412 25.749-.12 52.624 14.519 73.735 13.942 20.106 21.312 43.718 21.312 68.28 0 60.866-45.516 112.1-105.873 119.174-3.778.443-6.627 3.645-6.627 7.449v95.348c0 3.584 2.535 6.666 6.051 7.358l59.449 11.715-.012 4.323-145.988-.012.01-4.346 59.466-11.932c3.503-.703 6.024-3.78 6.024-7.354v-19.357c0-4.143-3.357-7.5-7.5-7.5s-7.5 3.357-7.5 7.5v13.213l-53.441 10.723c-6.987 1.402-12.059 7.593-12.059 14.719v4.334c0 8.277 6.734 15.012 15.012 15.012h145.977c8.277 0 15.012-6.734 15.012-15.012v-4.312c0-7.152-5.094-13.347-12.111-14.729l-53.389-10.512v-82.674c64.59-10.807 112.497-66.899 112.497-133.128zm-245.418-111.835c-34.512 0-62.59-28.078-62.59-62.59 0-34.513 28.078-62.591 62.59-62.591 33.771 0 61.365 26.891 62.534 60.383h-10.94c-.533-12.602-5.599-24.047-13.61-32.746-.116-.142-.231-.285-.359-.42-.151-.16-.31-.307-.471-.451-9.4-9.745-22.576-15.825-37.153-15.825-23.924 0-44.095 16.353-49.938 38.467-.023.077-.052.15-.072.229-.012.045-.017.09-.028.135-1.051 4.101-1.612 8.396-1.612 12.819 0 17.325 8.583 32.673 21.711 42.047.194.165.398.322.612.47.085.059.177.099.264.153 8.286 5.662 18.293 8.979 29.063 8.979 4.739 0 9.459-.668 14.005-1.947.054 3.835-.178 7.658-.656 11.447-4.383.955-8.855 1.441-13.35 1.441zm9.354-43.168c.796 4.553 1.711 9.16 2.719 13.693.103.461.176.926.271 1.389-3.936 1.416-8.066 2.146-12.343 2.146-5.03 0-9.827-1.02-14.194-2.862l16.207-23.496 7.226 3.688c-.223 1.79-.204 3.62.114 5.442zm-46.003-19.422c0-.582.017-1.159.044-1.734l24.341 6.305-14.263 20.677c-6.264-6.578-10.122-15.468-10.122-25.248zm20.591-32.937 5.686 22.502-22.464-5.819c3.598-7.238 9.515-13.127 16.778-16.683zm20.24 18.873-5.697-22.547c.503-.021 1.007-.039 1.515-.039 7.818 0 15.066 2.469 21.023 6.656zm12.848 15.178-4.589-2.342 18.851-17.832c3.036 4.966 4.918 10.708 5.285 16.852h-9.014c-3.818 0-7.469 1.192-10.533 3.322z"/></g></svg>