<?xml version="1.0" encoding="iso-8859-1"?>
<!-- Generator: Adobe Illustrator 19.0.0, SVG Export Plug-In . SVG Version: 6.00 Build 0)  -->
<svg version="1.1" id="Capa_1" xmlns="http://www.w3.org/2000/svg" xmlns:xlink="http://www.w3.org/1999/xlink" x="0px" y="0px"
	 viewBox="0 0 512 512" style="enable-background:new 0 0 512 512;" xml:space="preserve">
<g>
	<g>
		<path d="M502,27.006H277.77c-8.417,0-16.079,3.29-21.77,8.651c-5.69-5.361-13.353-8.651-21.77-8.651H10.013
			c-5.522,0-10,4.478-10,10v26.372C0.011,63.462,0,63.544,0,63.629v385.337c0,5.522,4.478,10,10,10h207.553
			c2.2,0,4.176,1.369,5.032,3.489c5.531,13.692,18.647,22.539,33.415,22.539s27.884-8.847,33.416-22.539
			c0.855-2.12,2.831-3.489,5.031-3.489H502c5.522,0,10-4.478,10-10v-39.973V63.629V37.006C512,31.483,507.522,27.006,502,27.006z
			 M20.013,365.64l33.354,33.354H20.013V365.64z M34.155,351.497h33.354v33.354L34.155,351.497z M492,438.966H294.447
			c-10.396,0-19.649,6.279-23.575,15.997c-2.462,6.094-8.3,10.031-14.872,10.031s-12.41-3.938-14.871-10.031
			c-3.927-9.718-13.181-15.997-23.576-15.997H20v-19.973h214.23c6.49,0,11.77,5.279,11.77,11.77c0,5.522,4.478,10,10,10
			c5.522,0,10-4.478,10-10c0-6.49,5.279-11.77,11.77-11.77H492V438.966z M492,63.629v335.364H277.77
			c-4.156,0-8.128,0.805-11.77,2.263V242.994c0-5.522-4.478-10-10-10c-5.522,0-10,4.478-10,10v158.262
			c-3.642-1.458-7.613-2.263-11.77-2.263H87.509v-57.496c0-5.522-4.478-10-10-10H20.013V47.006H234.23
			c6.49,0,11.77,5.28,11.77,11.77c0,5.522,4.478,10,10,10c5.522,0,10-4.478,10-10c0-6.489,5.279-11.77,11.77-11.77H492V63.629z"/>
	</g>
</g>
<g>
	<g>
		<path d="M201.811,213.993H94c-5.522,0-10,4.478-10,10c0,5.522,4.478,10,10,10h107.811c5.522,0,10-4.478,10-10
			C211.811,218.471,207.333,213.993,201.811,213.993z"/>
	</g>
</g>
<g>
	<g>
		<path d="M201.811,269.993H94c-5.522,0-10,4.478-10,10c0,5.522,4.478,10,10,10h107.811c5.522,0,10-4.478,10-10
			C211.811,274.471,207.333,269.993,201.811,269.993z"/>
	</g>
</g>
<g>
	<g>
		<path d="M201.811,325.993h-53.905c-5.522,0-10,4.478-10,10c0,5.522,4.478,10,10,10h53.905c5.522,0,10-4.478,10-10
			C211.811,330.471,207.333,325.993,201.811,325.993z"/>
	</g>
</g>
<g>
	<g>
		<path d="M64.569,216.92c-1.859-1.86-4.43-2.93-7.069-2.93c-2.63,0-5.21,1.069-7.07,2.93c-1.86,1.861-2.93,4.439-2.93,7.07
			c0,2.64,1.069,5.21,2.93,7.069c1.86,1.861,4.44,2.931,7.07,2.931c2.64,0,5.21-1.07,7.069-2.931c1.86-1.859,2.931-4.43,2.931-7.069
			C67.5,221.359,66.43,218.78,64.569,216.92z"/>
	</g>
</g>
<g>
	<g>
		<path d="M64.569,272.92c-1.859-1.86-4.43-2.93-7.069-2.93c-2.63,0-5.21,1.069-7.07,2.93c-1.86,1.861-2.93,4.439-2.93,7.07
			c0,2.64,1.069,5.21,2.93,7.069c1.86,1.871,4.44,2.931,7.07,2.931s5.21-1.061,7.069-2.931c1.87-1.859,2.931-4.43,2.931-7.069
			C67.5,277.359,66.439,274.78,64.569,272.92z"/>
	</g>
</g>
<g>
	<g>
		<path d="M451.217,213.543h-107.81c-5.522,0-10,4.478-10,10c0,5.522,4.478,10,10,10h107.81c5.522,0,10-4.478,10-10
			C461.217,218.021,456.739,213.543,451.217,213.543z"/>
	</g>
</g>
<g>
	<g>
		<path d="M451.217,269.543h-107.81c-5.522,0-10,4.478-10,10c0,5.522,4.478,10,10,10h107.81c5.522,0,10-4.478,10-10
			C461.217,274.021,456.739,269.543,451.217,269.543z"/>
	</g>
</g>
<g>
	<g>
		<path d="M451.217,325.543h-107.81c-5.522,0-10,4.478-10,10c0,5.522,4.478,10,10,10h107.81c5.522,0,10-4.478,10-10
			C461.217,330.021,456.739,325.543,451.217,325.543z"/>
	</g>
</g>
<g>
	<g>
		<path d="M313.979,216.47c-1.859-1.86-4.439-2.93-7.069-2.93s-5.21,1.069-7.07,2.93c-1.86,1.86-2.93,4.44-2.93,7.07
			s1.069,5.21,2.93,7.069c1.86,1.87,4.44,2.931,7.07,2.931s5.21-1.061,7.069-2.931c1.86-1.859,2.931-4.439,2.931-7.069
			S315.84,218.33,313.979,216.47z"/>
	</g>
</g>
<g>
	<g>
		<path d="M313.979,272.47c-1.859-1.861-4.439-2.93-7.069-2.93s-5.21,1.069-7.07,2.93c-1.86,1.861-2.93,4.44-2.93,7.07
			c0,2.64,1.069,5.21,2.93,7.069c1.86,1.87,4.44,2.931,7.07,2.931s5.21-1.061,7.069-2.931c1.86-1.859,2.931-4.439,2.931-7.069
			S315.84,274.34,313.979,272.47z"/>
	</g>
</g>
<g>
	<g>
		<path d="M313.979,328.47c-1.859-1.861-4.439-2.93-7.069-2.93s-5.21,1.069-7.07,2.93c-1.86,1.861-2.93,4.44-2.93,7.07
			s1.069,5.21,2.93,7.069c1.86,1.87,4.44,2.931,7.07,2.931s5.21-1.061,7.069-2.931c1.86-1.859,2.931-4.439,2.931-7.069
			S315.84,330.34,313.979,328.47z"/>
	</g>
</g>
<g>
	<g>
		<path d="M230.038,148.938H218.49v-12h9.583c5.522,0,10-4.478,10-10c0-5.522-4.478-10-10-10h-9.583v-12h11.548
			c5.522,0,10-4.478,10-10c0-5.522-4.478-10-10-10H217.64c-10.559,0-19.149,8.591-19.149,19.149v45.702
			c-0.001,10.559,8.59,19.149,19.149,19.149h12.398c5.522,0,10-4.478,10-10C240.038,153.416,235.56,148.938,230.038,148.938z"/>
	</g>
</g>
<g>
	<g>
		<path d="M176.284,85.504c-4.002-1.406-8.459-0.137-11.116,3.173l-10.869,13.538l-10.868-13.538
			c-2.657-3.309-7.112-4.58-11.116-3.173c-4.003,1.408-6.682,5.189-6.682,9.434v64c0,5.522,4.477,10,10,10c5.522,0,10-4.478,10-10
			v-35.571l0.868,1.082c1.898,2.364,4.766,3.739,7.798,3.739c3.031,0,5.899-1.375,7.798-3.739l0.869-1.083v35.572
			c0,5.522,4.478,10,10,10c5.522,0,10-4.478,10-10v-64C182.966,90.694,180.287,86.913,176.284,85.504z"/>
	</g>
</g>
<g>
	<g>
		<path d="M302.661,84.938c-5.522,0-10,4.478-10,10v27.011l-18.695-32.05c-2.275-3.901-6.889-5.794-11.247-4.614
			c-4.361,1.179-7.391,5.136-7.391,9.653v64c0,5.522,4.478,10,10,10c5.522,0,10-4.478,10-10v-27.011l18.695,32.05
			c1.823,3.126,5.146,4.962,8.637,4.962c0.866,0,1.744-0.113,2.61-0.348c4.361-1.179,7.391-5.136,7.391-9.653v-64
			C312.661,89.416,308.183,84.938,302.661,84.938z"/>
	</g>
</g>
<g>
	<g>
		<path d="M376.367,84.938c-5.522,0-10,4.478-10,10v49.236c0,2.627-2.137,4.764-4.764,4.764h-5.286
			c-2.627,0-4.765-2.137-4.765-4.764V94.938c0-5.522-4.478-10-10-10c-5.522,0-10,4.478-10,10v49.236
			c0.001,13.654,11.11,24.764,24.765,24.764h5.286c13.654,0,24.764-11.109,24.764-24.764V94.938
			C386.367,89.416,381.889,84.938,376.367,84.938z"/>
	</g>
</g>
<g>
</g>
<g>
</g>
<g>
</g>
<g>
</g>
<g>
</g>
<g>
</g>
<g>
</g>
<g>
</g>
<g>
</g>
<g>
</g>
<g>
</g>
<g>
</g>
<g>
</g>
<g>
</g>
<g>
</g>
</svg>
